<svg xmlns="http://www.w3.org/2000/svg" viewBox="0 0 148 128" fill="none">
  <defs>
    <linearGradient id="eventGlow" x1="74" x2="74" y1="8" y2="120" gradientUnits="userSpaceOnUse">
      <stop stop-color="#FFF0A8"/>
      <stop offset="1" stop-color="#F0BA38"/>
    </linearGradient>
  </defs>
  <circle cx="112" cy="34" r="20" fill="#00D9FF" fill-opacity="0.16"/>
  <circle cx="112" cy="34" r="15" fill="#00D9FF" fill-opacity="0.24" stroke="#BFF7FF" stroke-width="3"/>
  <path d="M112 24L115 31H123L117 35L119 43L112 38L105 43L107 35L101 31H109L112 24Z" fill="#F9CF4A"/>
  <path d="M14 52C14 34.327 28.327 20 46 20H100C118.481 20 135.018 31.379 142 47.673L144 52V88C144 98.493 135.493 107 125 107H37C24.297 107 14 96.703 14 84V52Z" fill="url(#eventGlow)" stroke="#102736" stroke-width="4"/>
  <path d="M52 30H101C113.457 30 124.998 36.454 131.511 47.066L134 51V74H48V34C48 31.791 49.791 30 52 30Z" fill="#C9EDFF" stroke="#123D59" stroke-width="3"/>
  <rect x="20" y="86" width="36" height="12" rx="6" fill="#7CE0AE" stroke="#123D59" stroke-width="3"/>
  <path d="M112 63H128V92H100L112 63Z" fill="#F8D463" stroke="#123D59" stroke-width="3"/>
  <circle cx="42" cy="106" r="10" fill="#102736" stroke="#F0F5FF" stroke-width="3"/>
  <circle cx="108" cy="106" r="10" fill="#102736" stroke="#F0F5FF" stroke-width="3"/>
</svg>