<svg xmlns="http://www.w3.org/2000/svg" viewBox="0 0 96 96" fill="none">
  <defs>
    <radialGradient id="mutiraoFill" cx="0" cy="0" r="1" gradientUnits="userSpaceOnUse" gradientTransform="translate(48 42) rotate(90) scale(34)">
      <stop stop-color="#FFF5BE"/>
      <stop offset="1" stop-color="#F9CF4A"/>
    </radialGradient>
  </defs>
  <path d="M48 15L57 34L78 37L63 51L67 72L48 62L29 72L33 51L18 37L39 34L48 15Z" fill="url(#mutiraoFill)" stroke="#FFF6DB" stroke-width="4" stroke-linejoin="round"/>
  <circle cx="40" cy="48" r="5" fill="#123D59"/>
  <circle cx="48" cy="43" r="6" fill="#123D59"/>
  <circle cx="57" cy="48" r="5" fill="#123D59"/>
  <path d="M34 61C35.5 55.5 39 52 42.5 52C45 52 47.5 53.5 48 56" stroke="#123D59" stroke-width="4.5" stroke-linecap="round"/>
  <path d="M62 61C60.5 55.5 57 52 53.5 52C51 52 48.5 53.5 48 56" stroke="#123D59" stroke-width="4.5" stroke-linecap="round"/>
  <path d="M44 60C45 56 46.5 54 48 54C49.5 54 51 56 52 60" stroke="#123D59" stroke-width="4.5" stroke-linecap="round"/>
</svg>