<svg xmlns="http://www.w3.org/2000/svg" width="200" height="200" viewBox="0 0 200 200">
  <defs>
    <radialGradient id="moradiaBg" cx="48%" cy="35%" r="76%">
      <stop offset="0%" stop-color="#7b3f22"/>
      <stop offset="100%" stop-color="#2a1308"/>
    </radialGradient>
    <linearGradient id="housingWall" x1="0" y1="0" x2="0" y2="1">
      <stop offset="0%" stop-color="#e6a064"/>
      <stop offset="100%" stop-color="#a35b32"/>
    </linearGradient>
    <linearGradient id="housingRoof" x1="0" y1="0" x2="0" y2="1">
      <stop offset="0%" stop-color="#f4b170"/>
      <stop offset="100%" stop-color="#b76835"/>
    </linearGradient>
  </defs>

  <rect width="200" height="200" rx="14" fill="url(#moradiaBg)"/>
  <rect width="200" height="200" rx="14" fill="none" stroke="#e0884a" stroke-width="3" opacity="0.78"/>

  <rect x="16" y="144" width="168" height="30" rx="5" fill="#3b1a0e" opacity="0.92"/>

  <g opacity="0.97">
    <rect x="20" y="102" width="34" height="58" rx="3" fill="url(#housingWall)"/>
    <polygon points="16,102 58,102 58,92 37,80 16,92" fill="url(#housingRoof)"/>
    <rect x="58" y="94" width="40" height="66" rx="3" fill="url(#housingWall)"/>
    <polygon points="54,94 102,94 102,82 78,68 54,82" fill="url(#housingRoof)"/>
    <rect x="104" y="86" width="42" height="74" rx="3" fill="url(#housingWall)"/>
    <polygon points="100,86 150,86 150,72 126,56 100,72" fill="url(#housingRoof)"/>
    <rect x="148" y="98" width="34" height="62" rx="3" fill="url(#housingWall)"/>
    <polygon points="144,98 186,98 186,88 165,76 144,88" fill="url(#housingRoof)"/>
  </g>

  <g opacity="0.9">
    <rect x="28" y="116" width="8" height="8" rx="1" fill="#fde68a"/>
    <rect x="68" y="110" width="8" height="8" rx="1" fill="#fde68a"/>
    <rect x="116" y="102" width="8" height="8" rx="1" fill="#fde68a"/>
    <rect x="158" y="116" width="8" height="8" rx="1" fill="#fde68a"/>
    <rect x="82" y="146" width="32" height="6" rx="3" fill="#5b2a16"/>
  </g>

  <g opacity="0.88">
    <line x1="60" y1="74" x2="128" y2="74" stroke="#fbbf24" stroke-width="1"/>
    <rect x="72" y="74" width="4" height="7" fill="#f59e0b"/>
    <rect x="86" y="74" width="4" height="6" fill="#f97316"/>
    <rect x="104" y="74" width="4" height="7" fill="#fb923c"/>
  </g>

  <rect x="26" y="174" width="148" height="20" rx="5" fill="#1b0b05" opacity="0.92"/>
  <text x="100" y="188" font-family="monospace" font-size="10" font-weight="bold" fill="#fb923c" text-anchor="middle" letter-spacing="2">MORADIA</text>
</svg>