<svg xmlns="http://www.w3.org/2000/svg" width="200" height="200" viewBox="0 0 200 200">
  <defs>
    <radialGradient id="aguaBg" cx="48%" cy="36%" r="72%">
      <stop offset="0%" stop-color="#1e6b92"/>
      <stop offset="100%" stop-color="#071a27"/>
    </radialGradient>
    <linearGradient id="towerTank" x1="0" y1="0" x2="0" y2="1">
      <stop offset="0%" stop-color="#8be6ff"/>
      <stop offset="100%" stop-color="#2e9bcc"/>
    </linearGradient>
    <linearGradient id="pipes" x1="0" y1="0" x2="1" y2="0">
      <stop offset="0%" stop-color="#2d4e66"/>
      <stop offset="50%" stop-color="#4f7da0"/>
      <stop offset="100%" stop-color="#2d4e66"/>
    </linearGradient>
  </defs>

  <rect width="200" height="200" rx="14" fill="url(#aguaBg)"/>
  <rect width="200" height="200" rx="14" fill="none" stroke="#4bb0ff" stroke-width="3" opacity="0.76"/>

  <rect x="16" y="136" width="168" height="36" rx="6" fill="#0d2a3e" opacity="0.9"/>
  <rect x="26" y="143" width="148" height="9" rx="4" fill="url(#pipes)"/>
  <rect x="34" y="157" width="132" height="7" rx="3" fill="url(#pipes)"/>

  <g opacity="0.95">
    <rect x="42" y="104" width="8" height="58" rx="2" fill="#3a6f92"/>
    <rect x="61" y="104" width="8" height="58" rx="2" fill="#3a6f92"/>
    <line x1="42" y1="132" x2="69" y2="152" stroke="#5ea3cc" stroke-width="2"/>
    <line x1="69" y1="132" x2="42" y2="152" stroke="#5ea3cc" stroke-width="2"/>
    <ellipse cx="56" cy="96" rx="22" ry="8" fill="#58c5f2"/>
    <rect x="34" y="86" width="44" height="12" rx="3" fill="url(#towerTank)"/>
    <ellipse cx="56" cy="86" rx="22" ry="8" fill="#9beeff"/>
  </g>

  <g opacity="0.95">
    <rect x="132" y="82" width="10" height="76" rx="2" fill="#3a6f92"/>
    <rect x="150" y="82" width="10" height="76" rx="2" fill="#3a6f92"/>
    <line x1="132" y1="118" x2="160" y2="143" stroke="#5ea3cc" stroke-width="2"/>
    <line x1="160" y1="118" x2="132" y2="143" stroke="#5ea3cc" stroke-width="2"/>
    <ellipse cx="146" cy="72" rx="26" ry="9" fill="#58c5f2"/>
    <rect x="120" y="61" width="52" height="14" rx="3" fill="url(#towerTank)"/>
    <ellipse cx="146" cy="61" rx="26" ry="9" fill="#9beeff"/>
  </g>

  <g opacity="0.85">
    <rect x="92" y="120" width="24" height="22" rx="3" fill="#124463"/>
    <circle cx="104" cy="132" r="6" fill="none" stroke="#7dd3fc" stroke-width="2"/>
    <line x1="104" y1="126" x2="104" y2="138" stroke="#7dd3fc" stroke-width="2"/>
    <line x1="98" y1="132" x2="110" y2="132" stroke="#7dd3fc" stroke-width="2"/>
  </g>

  <rect x="30" y="174" width="140" height="20" rx="5" fill="#061621" opacity="0.9"/>
  <text x="100" y="188" font-family="monospace" font-size="10" font-weight="bold" fill="#7dd3fc" text-anchor="middle" letter-spacing="2">AGUA</text>
</svg>