<svg xmlns="http://www.w3.org/2000/svg" viewBox="0 0 420 760" fill="none">
  <defs>
    <linearGradient id="farGlow" x1="210" x2="210" y1="84" y2="446" gradientUnits="userSpaceOnUse">
      <stop stop-color="#FFEAB2" stop-opacity="0.62"/>
      <stop offset="0.5" stop-color="#E5C574" stop-opacity="0.16"/>
      <stop offset="1" stop-color="#123D59" stop-opacity="0"/>
    </linearGradient>
    <linearGradient id="stack" x1="0" x2="0" y1="166" y2="520" gradientUnits="userSpaceOnUse">
      <stop stop-color="#E7D6AF" stop-opacity="0.58"/>
      <stop offset="1" stop-color="#0F2A3D" stop-opacity="0.14"/>
    </linearGradient>
  </defs>
  <ellipse cx="222" cy="154" rx="154" ry="84" fill="url(#farGlow)"/>
  <path d="M0 420L18 394H42L50 326H70L80 286H96L108 360H122L138 250H156L168 316H186L202 148H224L238 248H258L270 196H294L308 286H324L338 234H356L370 304H388L402 350H420V760H0V420Z" fill="url(#stack)"/>
  <path d="M20 392H58V760H20V392ZM112 346H152V760H112V346ZM192 224H246V760H192V224ZM286 272H330V760H286V272ZM360 352H400V760H360V352Z" fill="#102B3D" fill-opacity="0.3"/>
  <path d="M206 166V122" stroke="#FFEAB2" stroke-opacity="0.24" stroke-width="4" stroke-linecap="round"/>
  <path d="M220 166V102" stroke="#FFEAB2" stroke-opacity="0.18" stroke-width="3" stroke-linecap="round"/>
  <path d="M0 472C60 452 120 438 190 438C250 438 318 450 420 486V760H0V472Z" fill="#0B2232" fill-opacity="0.26"/>
</svg>