<svg xmlns="http://www.w3.org/2000/svg" viewBox="0 0 420 760" fill="none">
  <defs>
    <linearGradient id="midUrban" x1="210" x2="210" y1="220" y2="630" gradientUnits="userSpaceOnUse">
      <stop stop-color="#E5D2A6" stop-opacity="0.74"/>
      <stop offset="1" stop-color="#163B53" stop-opacity="0.2"/>
    </linearGradient>
  </defs>
  <path d="M0 458L18 438H38L52 414H68L82 430H94L106 376H126L144 394H164L178 340H198L214 370H232L252 316H274L288 340H306L320 384H340L356 360H376L394 420H420V760H0V458Z" fill="url(#midUrban)"/>
  <path d="M22 486H74V760H22V486ZM90 454H150V760H90V454ZM164 416H230V760H164V416ZM238 438H304V760H238V438ZM316 470H394V760H316V470Z" fill="#123D59" fill-opacity="0.24"/>
  <path d="M0 526C70 498 122 490 188 490C252 490 310 504 420 548V760H0V526Z" fill="#173B52" fill-opacity="0.28"/>
  <rect x="48" y="536" width="78" height="10" rx="5" fill="#FFD765" fill-opacity="0.16"/>
  <rect x="226" y="548" width="66" height="10" rx="5" fill="#7CE0AE" fill-opacity="0.16"/>
  <rect x="304" y="530" width="48" height="10" rx="5" fill="#F9CF4A" fill-opacity="0.14"/>
  <path d="M140 418H176" stroke="#EBD7A6" stroke-opacity="0.2" stroke-width="3" stroke-linecap="round"/>
  <path d="M260 388H294" stroke="#EBD7A6" stroke-opacity="0.18" stroke-width="3" stroke-linecap="round"/>
</svg>