<svg xmlns="http://www.w3.org/2000/svg" viewBox="0 0 400 400" fill="none">
  <defs>
    <filter id="grain" x="-20%" y="-20%" width="140%" height="140%">
      <feTurbulence type="fractalNoise" baseFrequency="0.9" numOctaves="2" stitchTiles="stitch" result="noise"/>
      <feColorMatrix in="noise" type="saturate" values="0" result="monoNoise"/>
      <feComponentTransfer in="monoNoise" result="fadedNoise">
        <feFuncA type="table" tableValues="0 0.05"/>
      </feComponentTransfer>
    </filter>
    <clipPath id="innerCircle">
      <circle cx="200" cy="170" r="135"/>
    </clipPath>
    <path id="bottomArc" d="M88 290C120 333 173 357 236 357C282 357 323 344 355 318"/>
  </defs>

  <circle cx="200" cy="200" r="186" fill="#050505"/>
  <circle cx="200" cy="170" r="141" fill="#E91818"/>
  <circle cx="200" cy="170" r="141" filter="url(#grain)" opacity="0.65"/>

  <g clip-path="url(#innerCircle)">
    <ellipse cx="208" cy="326" rx="128" ry="82" fill="#0C0C0C"/>
    <path d="M143 279C157 245 183 228 214 228C251 228 278 248 293 286L299 358H121L143 279Z" fill="#0A0A0A"/>
    <path d="M161 250C175 238 195 233 215 235C237 237 257 248 269 263L248 284C236 271 226 266 214 264C198 262 182 267 167 280L161 250Z" fill="#161616" opacity="0.9"/>

    <path d="M161 167C161 123 190 94 231 94C266 94 291 119 291 159C291 193 274 220 253 236C240 246 222 252 205 250C182 247 161 232 151 205C146 191 146 176 151 165L161 167Z" fill="#F4F0EA"/>
    <path d="M158 151C166 115 194 88 234 88C266 88 293 107 302 135C288 128 275 126 264 126C230 125 205 137 183 154L158 151Z" fill="#080808"/>
    <path d="M168 133C176 106 202 84 236 84C269 84 296 104 302 138C286 123 267 118 250 116C226 113 198 118 168 133Z" fill="#0D0D0D"/>
    <path d="M161 171C162 145 177 123 201 113C219 105 243 104 264 112C277 117 289 126 298 139C280 134 260 135 243 139C211 145 188 161 167 180L161 171Z" fill="#131313"/>

    <path d="M182 161C189 156 198 154 207 156L208 183C197 187 188 185 181 179C177 174 177 166 182 161Z" fill="#F4F0EA"/>
    <path d="M241 155C249 152 259 152 267 156C272 160 274 166 272 172C269 182 259 186 248 185L241 155Z" fill="#F4F0EA"/>
    <path d="M179 165C188 159 197 157 206 159C214 161 217 169 216 177C204 181 193 181 183 178C178 176 176 170 179 165Z" fill="#1A1A1A"/>
    <path d="M241 159C250 155 259 155 266 159C271 162 273 167 272 173C263 179 253 181 243 179C238 178 237 165 241 159Z" fill="#1A1A1A"/>
    <circle cx="198" cy="170" r="7" fill="#0A0A0A"/>
    <circle cx="252" cy="170" r="7" fill="#0A0A0A"/>
    <circle cx="196" cy="168" r="2" fill="#EDEDED" opacity="0.85"/>
    <circle cx="250" cy="168" r="2" fill="#EDEDED" opacity="0.85"/>
    <path d="M223 173L218 198L229 198" stroke="#151515" stroke-width="4" stroke-linecap="round" stroke-linejoin="round"/>
    <path d="M201 211C209 218 220 221 232 220C241 220 249 217 255 211" stroke="#171717" stroke-width="5" stroke-linecap="round"/>

    <path d="M182 203C191 208 198 214 203 224C190 221 180 214 172 204L182 203Z" fill="#171717"/>
    <path d="M262 201C252 207 245 214 241 224C254 221 264 214 272 204L262 201Z" fill="#171717"/>
    <path d="M199 219C212 227 228 230 245 228C257 227 267 223 276 217C270 250 251 273 226 278C200 283 173 271 156 241C149 229 145 216 143 204C157 214 174 219 199 219Z" fill="#111111"/>
    <path d="M170 235C181 246 196 255 214 258C232 260 250 255 266 244L251 278C240 286 228 291 214 291C195 291 179 282 166 267L170 235Z" fill="#181818"/>

    <path d="M269 215C284 226 299 245 310 269L279 284C273 266 264 250 251 237L269 215Z" fill="#0A0A0A"/>
    <rect x="254" y="208" width="24" height="109" rx="12" transform="rotate(17 254 208)" fill="#121212"/>
    <rect x="245" y="252" width="24" height="69" rx="12" transform="rotate(17 245 252)" fill="#262626"/>
    <ellipse cx="283" cy="271" rx="20" ry="29" transform="rotate(17 283 271)" fill="#EDE7DE"/>
    <ellipse cx="283" cy="271" rx="11" ry="16" transform="rotate(17 283 271)" fill="#181818"/>

    <path d="M153 279C171 262 193 255 216 257C242 259 265 272 282 291L291 358H117L153 279Z" fill="#0B0B0B"/>
    <path d="M175 267C194 281 218 287 245 286C262 285 276 281 288 274L300 358H171L175 267Z" fill="#111111" opacity="0.92"/>
    <path d="M132 335C171 319 214 311 257 313C281 315 304 320 326 329L326 358H120L132 335Z" fill="#090909"/>
  </g>

  <path d="M68 308C96 336 133 354 174 364H305C328 357 348 346 364 331L364 372H68V308Z" fill="#070707"/>

  <text fill="#F4F0EA" font-family="Arial, sans-serif" font-size="38" font-weight="700" letter-spacing="1.2">
    <textPath href="#bottomArc" startOffset="50%" text-anchor="middle">PRE-CANDIDATO</textPath>
  </text>
  <text x="200" y="373" fill="#F4F0EA" font-family="Arial, sans-serif" font-size="40" font-weight="700" text-anchor="middle">A DEPUTADO</text>
</svg>