<svg width="64" height="64" viewBox="0 0 64 64" xmlns="http://www.w3.org/2000/svg">
  <defs>
    <radialGradient id="actionGlow" cx="50%" cy="50%">
      <stop offset="0%" stop-color="#C9F27B" stop-opacity="0.4"/>
      <stop offset="100%" stop-color="#C9F27B" stop-opacity="0"/>
    </radialGradient>
  </defs>
  
  <!-- Glow de fundo -->
  <circle cx="32" cy="32" r="30" fill="url(#actionGlow)"/>
  
  <!-- Circulo de acao construtiva -->
  <circle cx="32" cy="32" r="26" fill="none" stroke="#7FD36E" stroke-width="3"/>
  
  <!-- Chave inglesa -->
  <path d="M 24 20 L 28 16 L 32 20 L 30 22 L 38 30 L 44 24 L 48 28 L 42 34 L 34 26 L 32 28 L 28 24 Z" 
        fill="#7FD36E"/>
  <rect x="26" y="18" width="4" height="8" rx="2" fill="#C9F27B"/>
  
  <!-- Engrenagem modular -->
  <g transform="translate(38, 40)">
    <circle cx="0" cy="0" r="10" fill="#2F5D50"/>
    <circle cx="0" cy="0" r="6" fill="#7FD36E"/>
    <rect x="-2" y="-10" width="4" height="4" rx="1" fill="#C9F27B"/>
    <rect x="-2" y="6" width="4" height="4" rx="1" fill="#C9F27B"/>
    <rect x="-10" y="-2" width="4" height="4" rx="1" fill="#C9F27B"/>
    <rect x="6" y="-2" width="4" height="4" rx="1" fill="#C9F27B"/>
  </g>
  
  <!-- Particulas de reparo -->
  <circle cx="18" cy="14" r="1.5" fill="#C9F27B" opacity="0.8"/>
  <circle cx="46" cy="18" r="1.5" fill="#C9F27B" opacity="0.7"/>
  <circle cx="14" cy="48" r="1.5" fill="#C9F27B" opacity="0.6"/>
</svg>
