<svg width="320" height="100" viewBox="0 0 320 100" xmlns="http://www.w3.org/2000/svg">
  <defs>
    <linearGradient id="chuvaGrad" x1="0" y1="0" x2="0" y2="1">
      <stop offset="0%" stop-color="#5BA3D0" stop-opacity="0.9"/>
      <stop offset="100%" stop-color="#F18F4E" stop-opacity="0.8"/>
    </linearGradient>
  </defs>
  
  <!-- Banner de evento -->
  <rect x="10" y="10" width="300" height="80" rx="16" fill="url(#chuvaGrad)"/>
  <rect x="12" y="12" width="296" height="76" rx="14" fill="none" stroke="#D74B4B" stroke-width="2"/>
  
  <!-- Nuvem -->
  <ellipse cx="80" cy="35" rx="28" ry="18" fill="#123D59"/>
  <ellipse cx="62" cy="40" rx="22" ry="14" fill="#123D59"/>
  <ellipse cx="98" cy="40" rx="24" ry="16" fill="#123D59"/>
  
  <!-- Gotas estilizadas -->
  <path d="M 70 52 Q 68 62 70 68 Q 72 62 70 52 Z" fill="#5BA3D0"/>
  <path d="M 80 56 Q 78 66 80 72 Q 82 66 80 56 Z" fill="#5BA3D0"/>
  <path d="M 90 54 Q 88 64 90 70 Q 92 64 90 54 Z" fill="#5BA3D0"/>
  
  <!-- Texto do evento -->
  <text x="160" y="48" font-family="sans-serif" font-size="18" font-weight="bold" 
        fill="#0F1E2B" text-anchor="middle">CHUVA FORTE</text>
  <text x="160" y="70" font-family="sans-serif" font-size="12" 
        fill="#123D59" text-anchor="middle">Risco hidrico aumentou</text>
</svg>
