<svg width="1600" height="900" viewBox="0 0 1600 900" fill="none" xmlns="http://www.w3.org/2000/svg">
  <defs>
    <linearGradient id="bg" x1="188" y1="84" x2="1325" y2="852" gradientUnits="userSpaceOnUse">
      <stop stop-color="#081724"/>
      <stop offset="0.56" stop-color="#10233A"/>
      <stop offset="1" stop-color="#241B10"/>
    </linearGradient>
    <radialGradient id="core" cx="0" cy="0" r="1" gradientUnits="userSpaceOnUse" gradientTransform="translate(810 472) rotate(90) scale(218)">
      <stop stop-color="#7DD3FC" stop-opacity="0.34"/>
      <stop offset="1" stop-color="#7DD3FC" stop-opacity="0"/>
    </radialGradient>
    <linearGradient id="line" x1="0" y1="0" x2="1" y2="0">
      <stop stop-color="#7DD3FC" stop-opacity="0"/>
      <stop offset="0.48" stop-color="#7DD3FC" stop-opacity="0.9"/>
      <stop offset="1" stop-color="#7DD3FC" stop-opacity="0"/>
    </linearGradient>
    <linearGradient id="danger" x1="0" y1="0" x2="1" y2="1">
      <stop stop-color="#7F1D1D" stop-opacity="0.1"/>
      <stop offset="1" stop-color="#EF4444" stop-opacity="0.4"/>
    </linearGradient>
    <filter id="glow" x="-40%" y="-40%" width="180%" height="180%">
      <feGaussianBlur stdDeviation="16" result="blur"/>
      <feMerge>
        <feMergeNode in="blur"/>
        <feMergeNode in="SourceGraphic"/>
      </feMerge>
    </filter>
  </defs>

  <rect width="1600" height="900" fill="url(#bg)"/>
  <rect x="52" y="52" width="1496" height="796" rx="42" stroke="rgba(125,211,252,0.22)" stroke-width="2"/>
  <rect x="78" y="78" width="1444" height="744" rx="34" fill="rgba(2,12,24,0.18)" stroke="rgba(255,255,255,0.06)"/>

  <rect x="128" y="126" width="1344" height="648" rx="32" fill="url(#core)"/>

  <path d="M220 204H730L648 474L230 432L220 204Z" fill="#142B3E" stroke="rgba(255,255,255,0.08)"/>
  <path d="M824 186H1370V448L930 480L824 186Z" fill="#16263A" stroke="rgba(255,255,255,0.08)"/>
  <path d="M286 520L734 492L798 732L250 718L286 520Z" fill="#183140" stroke="rgba(255,255,255,0.08)"/>
  <path d="M866 516L1362 500L1408 736L914 708L866 516Z" fill="#253643" stroke="rgba(255,255,255,0.08)"/>

  <path d="M608 352L938 322" stroke="url(#line)" stroke-width="3" stroke-linecap="round" filter="url(#glow)"/>
  <path d="M522 470L696 592" stroke="url(#line)" stroke-width="3" stroke-linecap="round" filter="url(#glow)"/>
  <path d="M998 454L1086 612" stroke="url(#line)" stroke-width="3" stroke-linecap="round" filter="url(#glow)"/>
  <path d="M712 642L1048 622" stroke="url(#line)" stroke-width="3" stroke-linecap="round" filter="url(#glow)"/>

  <circle cx="802" cy="470" r="82" fill="#081724" stroke="#7DD3FC" stroke-opacity="0.44" stroke-width="2"/>
  <circle cx="802" cy="470" r="118" stroke="#7DD3FC" stroke-opacity="0.16" stroke-width="2" stroke-dasharray="8 10"/>
  <circle cx="802" cy="470" r="18" fill="#22C55E" filter="url(#glow)"/>

  <rect x="228" y="264" width="92" height="96" rx="10" fill="rgba(148,163,184,0.18)"/>
  <rect x="336" y="238" width="66" height="122" rx="10" fill="rgba(148,163,184,0.16)"/>
  <rect x="416" y="280" width="78" height="80" rx="10" fill="rgba(148,163,184,0.14)"/>
  <rect x="1018" y="242" width="84" height="118" rx="10" fill="rgba(148,163,184,0.16)"/>
  <rect x="1118" y="220" width="68" height="140" rx="10" fill="rgba(148,163,184,0.18)"/>
  <rect x="1202" y="264" width="92" height="96" rx="10" fill="rgba(148,163,184,0.14)"/>
  <rect x="340" y="584" width="92" height="102" rx="10" fill="rgba(148,163,184,0.16)"/>
  <rect x="448" y="552" width="70" height="134" rx="10" fill="rgba(148,163,184,0.18)"/>
  <rect x="1032" y="568" width="88" height="118" rx="10" fill="rgba(148,163,184,0.18)"/>
  <rect x="1136" y="544" width="68" height="142" rx="10" fill="rgba(148,163,184,0.12)"/>

  <circle cx="1186" cy="250" r="68" fill="url(#danger)"/>
  <circle cx="382" cy="612" r="54" fill="rgba(34,197,94,0.12)"/>

  <text x="134" y="116" fill="#7DD3FC" fill-opacity="0.82" font-family="Arial, Helvetica, sans-serif" font-size="26" font-weight="700" letter-spacing="4">SHOWCASE OFICIAL</text>
  <text x="132" y="788" fill="#F8FAFC" font-family="Arial, Helvetica, sans-serif" font-size="122" font-weight="900">Cidade Real</text>
  <text x="140" y="838" fill="#CBD5E1" font-family="Arial, Helvetica, sans-serif" font-size="34" font-weight="600">Simulação visual-first de crise, intervenção e consequência urbana.</text>

  <text x="262" y="214" fill="#E2E8F0" font-family="Arial, Helvetica, sans-serif" font-size="20" font-weight="700" letter-spacing="2">VILA POPULAR</text>
  <text x="1042" y="210" fill="#E2E8F0" font-family="Arial, Helvetica, sans-serif" font-size="20" font-weight="700" letter-spacing="2">CENTRO HISTÓRICO</text>
  <text x="352" y="742" fill="#E2E8F0" font-family="Arial, Helvetica, sans-serif" font-size="20" font-weight="700" letter-spacing="2">POLO INDUSTRIAL</text>
  <text x="986" y="742" fill="#E2E8F0" font-family="Arial, Helvetica, sans-serif" font-size="20" font-weight="700" letter-spacing="2">PARQUE DAS ÁGUAS</text>

  <text x="760" y="460" fill="#94A3B8" font-family="Arial, Helvetica, sans-serif" font-size="15" font-weight="700" letter-spacing="3">NÚCLEO</text>
  <text x="736" y="492" fill="#F8FAFC" font-family="Arial, Helvetica, sans-serif" font-size="34" font-weight="900">MAPA VIVO</text>
</svg>